<?xml version="1.0" encoding="UTF-8"?>
<!--
Created: 2026-01-02
Author: @marcinmajsc
Repository: https://github.com/marcinmajsc/streamdelay-gui
-->

<svg id="uuid-beb96527-2685-4a74-b9a2-3e9444e783cd" data-name="Streamdelay-GUI" xmlns="http://www.w3.org/2000/svg" viewBox="0 0 840.21 741.87">
  <path d="M546.69,199.67l2,2c-.34,4.82-2.04,8.76-4,13.12-1.62,3.62-3.11,7.01-4,10.88.61.18,1.23.35,1.86.53,31.43,9.19,60.88,25.82,84.76,48.24,2.1,1.96,4.24,3.82,6.44,5.66,25.84,22.65,44.19,56.47,54,88.94.36,1.17.72,2.35,1.08,3.56,5.27,18.36,6.34,36.08,6.24,55.13-.02,3.8,0,7.6.02,11.4.02,18.13-1.18,35.78-5.91,53.35-.2.79-.4,1.58-.61,2.4-1.15,4.43-2.53,8.7-4.19,12.97-.61,1.58-1.18,3.17-1.74,4.77-9.21,25.59-25.34,47.53-43.96,67.04-.76.8-1.52,1.6-2.3,2.43-17.1,17.59-37.76,29.91-59.64,40.55-1.46.72-2.9,1.47-4.34,2.23-51.47,26.9-132.04,25.92-186.72,9.31-8.51-2.71-16.85-5.85-24.99-9.52-.69-.31-1.38-.62-2.1-.93-11.57-5.18-22.33-11.08-32.9-18.07,3.31-1.1,4.6-.88,7.96-.22.96.18,1.93.37,2.92.56,1.01.2,2.01.4,3.05.6,1.99.39,3.98.77,5.96,1.15.88.17,1.76.35,2.67.53q2.68.49,6.43.38c-.92-.44-1.85-.88-2.8-1.33-57.39-27.71-97.38-70.26-119.45-130.06-5.81-17.36-7.98-36.15-8-54.36,0-.69,0-1.38,0-2.09.04-26.3,5.36-52.48,16.81-76.23.53-1.1,1.06-2.2,1.61-3.33,6.31-12.89,13.49-24.69,22.83-35.61.99-1.18,1.97-2.36,2.95-3.54,1.06-1.26,2.11-2.51,3.17-3.77.49-.59.98-1.17,1.49-1.78,3.2-3.75,6.55-6.83,10.39-9.91.8-.8,1.61-1.61,2.44-2.44,25-25,58.41-41.46,92.25-50.38,1.06-.28,2.11-.56,3.2-.84,16-4.02,31.76-6.05,48.26-6.29,2.01-.04,4.01-.11,6.01-.21q16.24-.77,20.51,2.38c3.11,3.46,4.7,7.43,6.33,11.77.55,1.07,1.11,2.14,1.68,3.24q1.32,2.76,1.32,5.76-1.3.02-2.62.04c-3.28.06-6.57.14-9.85.22-1.41.03-2.82.06-4.22.08-9.79.16-18.74,1.34-28.3,3.65-2.77.56-5.54,1.06-8.31,1.56-44.71,8.28-93.24,33.05-120.69,70.44-26.39,38.82-35.95,89.9-27.64,135.89,3.13,15.16,7.3,30.56,14.65,44.26,1.14,2.14,2.22,4.31,3.3,6.48,5.1,10.14,10.79,19.37,17.69,28.38.82,1.1,1.64,2.19,2.46,3.29,7.66,10.18,15.67,20.14,24.84,29.01q1.7,1.7,4.2,4.76c3.19,3.74,6.75,6.77,10.5,9.94.92.8,1.83,1.61,2.77,2.43,6.4,5.58,13.04,10.76,19.91,15.75.79.58,1.58,1.15,2.4,1.75q1.11.8,2.24,1.61t2,1.44q1.63,1.19,3.67,1.02c-.4-.55-.8-1.1-1.21-1.66-7.78-10.85-15.89-22.85-20.79-35.34l1-2c.67.65,1.34,1.31,2.03,1.98,16.47,15.79,36.86,29.79,58.97,36.02,1.28.49,2.55.98,3.81,1.5,32.56,12.19,68.55,8.33,101.19-1.5.92-.26,1.84-.53,2.79-.8,22.41-6.85,43.55-18.84,61.21-34.2.72-.61,1.45-1.23,2.19-1.86,33.17-28.53,55.2-73.28,58.56-116.82.11-2.44.19-4.87.25-7.31.02-.65.04-1.31.06-1.98.75-26.11-4.25-50.71-14.17-74.83-.74-1.8-1.44-3.61-2.13-5.42-7.73-19.84-18.94-38.62-32.76-54.76-.92-1.12-1.84-2.25-2.75-3.38-15.56-18.16-38.55-34.14-60.83-42.69-2.22-.86-4.31-1.84-6.42-2.94-.12,1.13-.25,2.27-.38,3.44-.41,3.17-.89,6.3-1.5,9.44-.14.74-.28,1.48-.43,2.24q-.7,1.88-3.7,3.88-2.39.45-5,0-2.36-2.2-4.75-5.25c-.43-.55-.87-1.09-1.32-1.65-1.33-1.68-2.64-3.39-3.93-5.1q-1.07-1.4-2.16-2.84c-1.44-1.92-2.87-3.84-4.3-5.77-3.68-4.95-7.5-9.8-11.3-14.66-4.38-5.62-8.73-11.27-13.06-16.93-1.6-2.05-3.23-4.02-4.92-5.99q-2.26-2.81-2.89-5.5.62-2.31,2.57-3.83c4.1-1.99,8.16-2.69,12.62-3.48,5.38-.99,10.71-2.04,16.02-3.39,7.08-1.81,14.21-3.34,21.36-4.82,1.51-.31,3.01-.63,4.52-.96q16.3-3.5,23.55-2.83Z" style="fill: #ec8934;"/>
  <path d="M392.69,2.67q1.49.18,3,.36c34.27,4.24,67.77,13.96,99,28.71,1.96.91,3.94,1.78,5.92,2.64,9.38,4.14,18.2,9.13,27.02,14.35.57.34,1.15.68,1.74,1.03,7.33,4.34,14.43,8.9,21.32,13.91.74.54,1.48,1.07,2.24,1.62,2.1,1.53,4.18,3.08,6.26,4.63.7.52,1.4,1.03,2.12,1.56.67.5,1.34,1,2.03,1.52.6.44,1.19.88,1.81,1.34,2.49,2.15,3.48,3.9,3.91,7.14-.47,3.99-1.91,6.07-4.38,9.19-4.29,2.14-8.38,1.99-13,1-5.36-2.64-10.2-6.26-15.08-9.68-4.11-2.82-8.49-5.05-12.92-7.32-.71-.38-1.42-.75-2.15-1.14-22.27-11.76-45.67-20.85-69.85-27.86q-.99-.29-2.01-.6c-37.26-10.89-81.36-14.54-119.87-8.72-2.29.34-4.59.62-6.88.9-21.11,2.66-41.58,7.21-61.74,13.97-.69.23-1.38.46-2.09.7-24.81,8.38-48.32,19.69-70.41,33.74q-1.64,1.03-3.3,2.07c-28.95,18.71-54.84,42.56-75.7,69.93-.45.58-.9,1.16-1.36,1.76-11.32,14.69-20.77,30.57-28.71,47.31-.91,1.9-1.87,3.77-2.84,5.64-10.47,20.62-17.02,43.6-21.09,66.29-.19,1-.39,2-.59,3.03-7.89,41.26-4.22,85.1,8.59,124.97.32,1.12.64,2.24.97,3.39,5.86,19.47,15.43,38.94,27.03,55.61.41.6.83,1.21,1.25,1.83,13.88,20.23,30.81,40.75,50.66,55.42,4.49,3.76,6.84,7.19,7.4,13.06-.47,5.54-2.84,8.39-6.94,12-5.16,3.66-10.21,3.21-16.38,2.69-8.38-2.11-15.93-8.18-23-13-.6-.4-1.2-.8-1.82-1.22-18.47-12.44-35.3-29.65-48.18-47.78-1-1.37-2-2.73-3-4.1-10.11-13.94-18.58-28.38-26-43.9-.45-.93-.9-1.86-1.36-2.82-2.63-5.61-4.94-11.35-7.2-17.12q-.42-1.07-.85-2.17C.8,378.53-3.92,332.35,3.32,289.96c.35-2.13.63-4.25.88-6.4.98-8.54,2.74-16.64,4.97-24.92.51-1.9.98-3.8,1.46-5.71,2.45-9.65,5.59-18.93,9.06-28.25q.49-1.33.99-2.69c5.06-13.69,10.87-26.58,18.01-39.31.7-1.27,1.4-2.53,2.09-3.8,11.35-20.4,24.91-39.29,40.51-56.64,1.21-1.35,2.39-2.71,3.58-4.08,10.91-12.48,22.74-24.3,35.82-34.48,1.18-.97,2.35-1.95,3.52-2.93,16.83-14.05,34.76-25.85,53.86-36.6,2.17-1.22,4.33-2.46,6.49-3.71,30.96-17.32,66.61-28.83,101.44-34.89.74-.13,1.48-.26,2.24-.39,34.12-5.89,70.05-6.76,104.45-2.48Z" style="fill: #b54fcd;"/>
  <path d="M529.69,110.67c.97.6,1.94,1.19,2.95,1.81q6.44,4.04,8.05,8.19c.45,4.09.45,6.25-1.69,9.81-3.7,3.5-7.08,4.59-12.18,4.52-4.66-.74-8.79-3.26-12.95-5.4-9.89-4.9-19.78-9.27-30.19-12.94-.72-.26-1.44-.51-2.18-.78-9.93-3.47-20.01-6.12-30.26-8.47-1.05-.25-2.09-.49-3.17-.75-16.78-3.7-33.76-4.36-50.88-4.32-3.01,0-6.01-.02-9.02-.05-12.77-.04-24.93,1.08-37.49,3.36-1.03.17-2.05.35-3.11.52-2.3.4-4.6.83-6.89,1.29-.81.16-1.61.32-2.44.49-13.12,2.75-26.08,6.79-38.56,11.7-.83.31-1.66.62-2.52.93-27.54,10.74-55.53,27.63-76.24,48.89q-2.25,2.17-4.25,2.17-.33.83-.67,1.68c-1.74,3.03-4.12,5.15-6.64,7.51-7.48,7.24-13.56,15.43-19.69,23.81-.67.89-1.34,1.79-2.02,2.71-9.74,13.4-17.32,28.17-23.98,43.29q-.47,1.07-.96,2.16c-4.23,9.7-7.23,19.61-9.92,29.84-.3,1.13-.6,2.27-.9,3.44-1.49,5.89-2.61,11.58-3.01,17.64q-.21,1.93-1.21,3.93c-5.73,36.89-1.21,74.93,11,110,.38,1.13.75,2.26,1.14,3.43,9.3,26.25,27.83,50.15,49.42,67.45,2.89,2.52,4.18,4.47,4.77,8.27.1,5.44-.42,8.75-4.34,12.85-5.38,3.68-10.57,4.7-16.99,3.79-19.93-5.22-38.39-23.16-51.01-38.79-.61-.72-1.21-1.44-1.84-2.18-13.58-16.4-25-35.74-32.16-55.82-.23-.64-.46-1.29-.7-1.95-3.35-9.55-5.95-19.21-8.05-29.11q-.3-1.38-.6-2.79c-3.25-16-4.05-31.99-4.02-48.28,0-.94,0-1.88,0-2.85.02-13.92.76-27.19,3.87-40.81.45-1.96.82-3.94,1.19-5.92,4.81-25.42,14.25-49.98,27.31-72.3q.5-.87,1.01-1.75c5.45-9.49,11.43-18.49,17.99-27.25.45-.6.89-1.19,1.35-1.81,5.37-7.14,10.92-13.74,17.37-19.95,2.09-2.06,4-4.18,5.9-6.43,2.82-3.29,5.85-6.11,9.16-8.91,2.55-2.19,5-4.49,7.47-6.78,20.72-18.84,45.86-32.66,70.75-45.12.69-.35,1.38-.7,2.09-1.05,28.05-13.88,60.02-20.63,90.91-23.95q1.8-.2,3.64-.4c59.85-5.38,124.63,8.52,175.36,41.4Z" style="fill: #b550cd;"/>
  <path d="M375.72,648.29c1.26,0,2.52-.02,3.82-.03,1.4,0,2.8,0,4.2.01,1.47,0,2.94-.01,4.42-.02,4-.02,8-.02,12-.01,3.34,0,6.68,0,10.01,0,7.87-.01,15.75-.01,23.62,0,8.13.01,16.25,0,24.38-.03,6.97-.02,13.95-.03,20.92-.02,4.17,0,8.33,0,12.5-.02,3.92-.02,7.84-.01,11.75,0,1.44,0,2.88,0,4.32,0,1.96-.01,3.92,0,5.89.02,1.1,0,2.2,0,3.33,0,3.5.62,4.66,1.74,6.83,4.5q.91,2.63,1.5,5.56c1.15,5.19,2.71,10.01,4.63,14.96.87,2.48,1.41,4.89,1.87,7.47.82.12,1.64.24,2.49.37,1.12.17,2.23.34,3.38.51,1.09.16,2.18.32,3.3.49q60.46,10.02,74.3,26.39c2.92,4.3,4.09,8.04,3.52,13.25-5.04,6.34-15.5,7.85-23,9.56-.81.2-1.61.39-2.44.59-16.33,3.83-32.65,5.55-49.35,6.73-3.44.24-6.88.5-10.31.76-6.63.49-13.26.94-19.89,1.36-.9.06-1.79.12-2.72.17-18.68,1.15-37.39,1.03-56.09,1.01-.85,0-1.7,0-2.58,0q-89.33-.04-130.61-6.19c-1.18-.17-2.36-.35-3.57-.52q-38.04-5.7-44.43-13.48c-1.08-5.87.92-9.78,4.06-14.58,10.07-12.58,28.94-16.05,43.94-19.42,1.2-.28,2.39-.55,3.62-.84,9.97-2.24,20.11-4.36,30.38-4.16q.36-1.61.72-3.26c1.43-5.69,3.57-11.09,5.71-16.55q.59-1.55,1.2-3.14t1.17-3.01c.35-.9.7-1.79,1.06-2.72,2.46-5.05,4.6-5.7,10.16-5.71Z" style="fill: #d23423;"/>
  <path d="M405.69,658.67h26c-1.26,3.14-2.5,6.16-3.95,9.21q-.48,1.02-.97,2.05c-.4.84-.8,1.68-1.21,2.55-1.28,2.7-2.56,5.4-3.88,8.19h-27q2.25-6.75,4.16-10.09c.36-.63.72-1.27,1.09-1.92q.68-1.17,1.37-2.37c1.44-2.52,2.89-5.03,4.38-7.62Z" style="fill: #faf4f2;"/>
  <path d="M404.79,690.29c2.36.01,4.72.02,7.07.02,23.7.04,47.25.72,70.83,3.37v1c-.96.03-1.93.06-2.92.09-21.26.67-42.48,1.81-63.69,3.38q-1.35.1-2.73.2c-9.14.68-18.28,1.37-27.41,2.09q-31.91,2.49-43.4,2.55c-.76,0-1.52.01-2.31.02-3.93-.05-7-.59-10.54-2.32,4.9-6.66,20.23-6.96,27.96-8.22,15.67-2.35,31.34-2.24,47.14-2.16Z" style="fill: #f9eeec;"/>
  <path d="M403.05,142.41c2.57.01,5.14,0,7.71-.01,15.3-.02,29.96,1.45,44.87,5.02,1.11.26,2.22.52,3.36.79,8.71,2.11,17.2,4.63,25.62,7.7,2.18.79,4.37,1.54,6.56,2.29,1.44.51,2.89,1.02,4.33,1.53.65.22,1.3.44,1.98.67,4.42,1.61,7.24,3.62,10.21,7.27.97,3.08.53,4.68,0,8-3.57,3.76-6.52,4.94-11.68,5.16-4.27-.06-8.25-.76-12.41-1.65-1.54-.31-3.08-.63-4.62-.94-2.38-.49-4.76-.99-7.13-1.49-10.77-2.26-21.12-3.75-32.15-4.07q-1.02-.03-2.07-.06c-5.02-.14-10.04-.19-15.06-.19q-1.14,0-2.3,0c-12.73.02-25.05.79-37.57,3.25-.9.17-1.8.34-2.73.52-40.91,8-78.14,27.75-108.27,56.48-1.43,1.24-2.87,2.47-4.31,3.69-3.97,3.46-7.32,7.28-10.69,11.31-.76.87-1.52,1.75-2.31,2.65-6.61,7.69-12.3,15.77-17.69,24.35-.44.69-.88,1.38-1.33,2.09-14.08,22.27-24.85,48.58-28.34,74.83q-.32,2.08-1.32,4.08c-2.85,24.06-3.03,50.39,4.29,73.63.8,3.83.59,6.57-.29,10.37-2.75,3.16-4.35,3.91-8.5,4.5-4.33-.62-5.6-1.22-8.5-4.5-1.95-3.56-3.52-7.22-5-11-.31-.8-.63-1.59-.95-2.42-2.52-6.65-4.29-13.26-5.74-20.21-.21-.97-.42-1.94-.64-2.95-2.36-11.07-2.86-21.74-2.86-33.04,0-2.42-.02-4.85-.04-7.27-.06-14.94,1.58-29.09,5.29-43.62.3-1.19.6-2.39.92-3.61,4.66-17.77,11.23-34.76,20.02-50.89.61-1.15,1.22-2.3,1.86-3.49,8.08-14.71,18.09-27.94,29.14-40.51.67-.79,1.34-1.59,2.03-2.4,3.4-4,6.88-7.31,10.97-10.6.74-.74,1.49-1.49,2.25-2.25,39.49-39.49,97.34-63.29,153.11-63.01Z" style="fill: #b54fcd;"/>
  <path d="M574.69,316.67c3.5,2.04,5.77,4.1,7,8,.49,5.28-.03,8.59-3,13-2.24,2.15-4.55,4.18-6.94,6.17q-2.25,1.85-4.06,4.83h-2c-.21.54-.43,1.08-.65,1.64-1.84,3.21-4.36,5.6-6.99,8.16-.56.55-1.12,1.1-1.69,1.67-1.78,1.76-3.57,3.52-5.36,5.28-1.77,1.74-3.54,3.49-5.31,5.24-1.1,1.08-2.2,2.17-3.3,3.25-2.81,2.77-5.46,5.61-8.03,8.62-4,4.62-8.4,8.73-12.86,12.9-2.66,2.54-5.31,5.09-7.96,7.64-1.82,1.74-3.66,3.47-5.51,5.18q-12.08,10.24-17.94,24.23c-.02,3.08.31,6.13.59,9.2-1.75,8.73-6.2,15.29-13,21-9.76,5.67-19.43,7.5-30.64,5.54-10.5-3.12-16.22-10.14-21.39-19.39-2.22-4.52-2.22-8.25-1.96-13.15-.71-.26-1.41-.53-2.14-.8-3.05-1.28-5.81-2.79-8.68-4.45-.59-.34-1.18-.68-1.79-1.03-2.13-1.23-4.26-2.47-6.39-3.72-.85-.5-1.7-.99-2.58-1.5-3.92-2.29-7.84-4.58-11.76-6.87-7.58-4.43-15.18-8.82-22.78-13.19-10.85-6.25-21.66-12.57-32.42-18.97-1.73-1.03-3.47-2.06-5.21-3.08-.89-.53-1.79-1.06-2.71-1.61-.81-.48-1.61-.95-2.45-1.44-2.87-1.82-4.53-3.29-6.09-6.33-.74-3.85-.9-7.32.99-10.84,2.24-2.83,4.53-5.16,8.01-6.16,7.23-.68,11.81,1.36,18.19,4.62,2.05,1.02,4.1,2.03,6.15,3.05,1.08.54,2.16,1.08,3.28,1.64,5.24,2.61,10.52,5.14,15.8,7.68,3.08,1.48,6.16,2.97,9.23,4.45.61.3,1.22.59,1.85.9,4.17,2.01,8.33,4.03,12.5,6.05,14.57,7.05,29.17,14.08,44,20.61q1.26.62,2.55,1.26,2.41,1.01,4.5-.13c.64-.37,1.29-.75,1.95-1.13q2.02-.18,4.16-.1c9.42.11,15.92-.04,22.98-6.92.44-.47.88-.93,1.34-1.41,2.45-2.54,5.04-4.91,7.62-7.32,1.48-1.38,2.95-2.77,4.42-4.17,5.01-4.76,10.15-9.32,15.44-13.78,4.64-3.93,9.12-8.01,13.57-12.16,3.43-3.19,6.91-6.31,10.45-9.38,2.54-2.22,5.03-4.5,7.52-6.77,3.78-3.45,7.6-6.86,11.46-10.21,2.41-2.11,4.78-4.26,7.16-6.41.85-.75,1.7-1.51,2.57-2.29,1.34-1.22,2.67-2.47,3.92-3.77,4.23-4.21,8.77-4.34,14.38-3.32Z" style="fill: #eb8935;"/>
  <path d="M467.69,419.67c4.98,4.2,6.74,7.38,7.38,13.81-.14,4.68-1.64,8.41-4.38,12.19-5.83,4.64-10.75,5.66-18,5-5.2-1.62-8.09-3.37-11-8-2.21-4.86-2.77-9.73-2-15,2.44-4.79,5.75-8.65,10.81-10.75,6.67-.76,11.2-.53,17.19,2.75Z" style="fill: #fdfcf8;"/>
  <path d="M744.69,204.67c4.34.52,7.23,3.28,10.5,5.94.62.49,1.23.98,1.87,1.49,4.99,4.01,9.91,8.1,14.81,12.22,2.72,2.27,5.48,4.47,8.26,6.66,3.43,2.72,6.57,5.5,9.56,8.69l-8,10c-4.49-1.79-6.13-2.77-9.44-5.94-4.19-3.87-8.49-7.56-12.94-11.12-.59-.49-1.19-.98-1.8-1.48-3.3-2.62-4.47-3.46-8.82-3.46q-1.95,1.83-3.62,4.25c-.59.79-1.18,1.58-1.79,2.39-1.39,2.07-2.54,4.1-3.59,6.36,8.82,7.57,17.81,14.88,27,22-1.36,2.99-2.95,5.29-5.12,7.75-.54.61-1.08,1.23-1.63,1.86-.41.46-.82.92-1.24,1.39-3.72-1.61-6.49-3.95-9.56-6.56-1.06-.89-2.12-1.79-3.18-2.68-.54-.45-1.07-.91-1.63-1.38-2.57-2.18-5.16-4.34-7.75-6.5-.89-.75-1.78-1.49-2.7-2.26q-2-1.82-4.18-1.62-1.31,1.32-2.6,3.06c-.49.63-.98,1.26-1.48,1.91-.51.67-1.02,1.34-1.54,2.02-.52.67-1.03,1.34-1.56,2.02-1.28,1.65-2.55,3.32-3.81,4.98,1.55,4.36,4.94,6.57,8.5,9.25,1.27.97,2.54,1.95,3.81,2.93.63.48,1.25.96,1.9,1.45,2.48,1.9,4.92,3.86,7.36,5.81q1.12.9,2.25,1.81c.72.58,1.44,1.16,2.18,1.75,1.67,1.33,3.33,2.67,5,4-1.36,2.99-2.95,5.29-5.12,7.75-.54.61-1.08,1.23-1.63,1.86-.41.46-.82.92-1.24,1.39-4.3-.52-7.14-3.23-10.38-5.88-1.26-1.01-2.52-2.02-3.78-3.03-.64-.52-1.28-1.03-1.94-1.57-2.93-2.35-5.89-4.66-8.84-6.97-7.4-5.8-14.73-11.68-22.06-17.56,1.54-4.81,4.27-8.11,7.44-11.94,1.1-1.34,2.19-2.69,3.29-4.04.55-.68,1.1-1.35,1.67-2.05,2.37-2.92,4.67-5.89,6.98-8.85,4.77-6.11,9.68-12.09,14.62-18.06,5.45-6.6,10.9-13.2,16.01-20.06Z" style="fill: #d43726;"/>
  <path d="M681.69,151.67c3.52,1.56,6.27,3.69,9.25,6.12.89.72,1.78,1.45,2.7,2.2.68.55,1.35,1.11,2.05,1.68-.66,4.09-1.96,7.59-3.59,11.39-.26.61-.52,1.23-.79,1.86-.56,1.32-1.12,2.63-1.68,3.95-1.48,3.47-2.95,6.94-4.41,10.41q-.44,1.05-.9,2.12c-4.37,10.36-8.5,20.81-12.63,31.26,7.84-5.35,15.66-10.72,23.38-16.25.58-.41,1.15-.83,1.75-1.25.56-.4,1.12-.81,1.7-1.22,8.28-5.93,16.68-11.66,25.17-17.27,3.52,1.56,6.27,3.69,9.25,6.12.89.72,1.78,1.45,2.7,2.2.68.55,1.35,1.11,2.05,1.68-1.48,3.85-3.47,5.24-6.95,7.36-1.01.62-2.03,1.25-3.07,1.89-1.06.64-2.13,1.28-3.23,1.94-2.07,1.26-4.14,2.53-6.2,3.79-1.07.65-2.14,1.3-3.23,1.98-8.5,5.24-16.84,10.69-25.1,16.3-.65.44-1.29.87-1.96,1.32q-3.96,2.68-7.91,5.37c-1.96,1.34-3.92,2.67-5.89,3.99-.59.41-1.18.82-1.79,1.24-3.28,2.2-4.58,2.82-8.67,2.82q-1.65-1.01-3.23-2.41c-.57-.5-1.15-.99-1.74-1.5-.59-.52-1.17-1.05-1.78-1.59-.6-.52-1.2-.05-1.82-1.59-1.48-1.29-2.96-2.6-4.43-3.91,2.26-8,5.03-15.77,7.94-23.56.43-1.17.86-2.33,1.3-3.54,2.11-5.67,4.32-11.24,6.83-16.74,1.71-3.97,3.05-8.06,4.43-12.16,2.19-6.5,4.64-12.76,7.5-19,1.01-2.33,2.01-4.66,3-7Z" style="fill: #d43826;"/>
  <path d="M822.72,255.51c7.94,4.68,14.5,9.99,16.97,19.16,1.21,9.33.62,17.28-5,25-5.72,7.12-11.17,9.99-20,12-7.98.7-15.15-1.02-21.56-5.99-7.3-6.95-10.6-12.23-10.94-22.39.26-8.47,1.86-15.07,7.62-21.44,9.09-8.13,21.31-11.63,32.91-6.35Z" style="fill: #d33424;"/>
  <path d="M608.69,92.67c4.18.55,6.6,2.9,9.75,5.56.98.83,1.97,1.65,2.98,2.5.75.64,1.5,1.28,2.27,1.93-1.36,4.04-3.14,6.54-6.06,9.62-4.4,4.75-8.51,9.67-12.58,14.7-1.56,1.92-3.14,3.82-4.73,5.73-6.77,8.16-13.39,16.37-19.64,24.95.55.24,1.11.49,1.68.74,2.79,1.51,5.02,3.35,7.45,5.38,3.75,3.11,7.51,6.21,11.31,9.25.78.63,1.56,1.25,2.37,1.9,2.04,1.61,4.11,3.18,6.19,4.73-1.44,3.24-3.26,5.62-5.62,8.25-.63.71-1.26,1.41-1.91,2.14q-.72.8-1.46,1.61c-4.53-1.46-7.68-4.02-11.19-7.12-1.16-1-2.32-2-3.48-3-.57-.49-1.14-.98-1.72-1.49-6.55-5.62-13.45-10.83-20.32-16.06-2.22-1.69-4.32-3.35-6.29-5.32.16-4.22,3.28-6.95,5.94-9.94,3.84-4.42,7.54-8.89,11.06-13.56,3.87-5.11,7.93-10.03,12.1-14.9,3.18-3.72,6.23-7.52,9.21-11.41,2.58-3.35,5.24-6.64,7.89-9.93,1.64-2.06,3.23-4.15,4.8-6.26Z" style="fill: #d53725;"/>
  <path d="M660.69,134.67c3.52,1.56,6.27,3.69,9.25,6.12.89.72,1.78,1.45,2.7,2.2.68.55,1.35,1.11,2.05,1.68-1.4,4.23-3.36,6.74-6.44,9.94-3.88,4.15-7.47,8.38-10.94,12.88-3.83,4.96-7.77,9.77-11.88,14.5-4.42,5.11-8.69,10.28-12.75,15.69q-.58.76-1.16,1.54c-2.62,3.48-5.23,6.97-7.84,10.46-4.18-.55-6.6-2.9-9.75-5.56-.98-.83-1.97-1.65-2.98-2.5-.75-.64-1.5-1.28-2.27-1.93,1.63-3.85,4.22-6.76,6.94-9.88,3.93-4.56,7.74-9.19,11.44-13.94,8.44-10.83,17.1-21.49,26.02-31.94,2.59-3.04,5.12-6.12,7.6-9.25Z" style="fill: #d43826;"/>
  <path d="M452.5,546.24c.83-.04,1.66-.08,2.52-.12,3.78.79,6.34,2.54,8.67,5.56.88,3.17.84,6.23.8,9.5q0,1.37.02,2.77c0,1.93,0,3.85-.03,5.78-.03,2.94,0,5.88.04,8.83,0,1.88-.01,3.75-.02,5.62q.02,1.32.04,2.66-.14,5.93-2.12,8.52c-4.36,3.79-7.69,4.01-13.21,3.75q-2.5-.43-5.12-2.24c-2.76-4.38-2.55-8.61-2.58-13.62,0-.83-.01-1.65-.02-2.51,0-1.75-.02-3.5-.02-5.25,0-2.67-.04-5.34-.07-8.01,0-1.7-.01-3.4-.02-5.11-.01-.8-.02-1.59-.04-2.41.02-4.59.39-7.57,3.37-11.28,3.14-2.09,4.18-2.34,7.81-2.44Z" style="fill: #ea8835;"/>
  <path d="M452.44,275.3c.84-.05,1.68-.1,2.55-.15,3.8.74,6.35,2.51,8.7,5.52.84,3.03.77,5.93.69,9.06,0,.87,0,1.74,0,2.63,0,1.83-.03,3.66-.07,5.5-.05,2.8-.06,5.59-.06,8.39-.01,1.78-.03,3.57-.05,5.35q0,1.25-.01,2.53c-.11,4.64-.47,7.78-3.49,11.54-4.24,2.83-8.02,2.66-13,2-3.56-2.11-4.69-3.08-6-7-.13-2.89-.21-5.76-.24-8.65,0-.85-.02-1.7-.02-2.57-.01-1.8-.02-3.59-.03-5.39-.02-2.74-.06-5.49-.11-8.23-.01-1.75-.02-3.49-.03-5.24-.02-.82-.04-1.64-.05-2.48.02-4.01.18-5.96,2.38-9.43,2.99-2.85,4.8-3.22,8.85-3.38Z" style="fill: #ea8634;"/>
  <path d="M304.67,417.32c1.8-.02,3.59-.04,5.39-.08,2.59-.05,5.18-.08,7.77-.09q1.2-.03,2.42-.07c4.09.02,6.69.36,9.95,2.94,2.94,3.12,3.28,4.42,3.18,8.65q0,1.52.01,3.06c-.96,4.03-2.45,5.39-5.7,7.94-2.88.7-5.67.66-8.62.59-.82,0-1.65,0-2.5,0-1.74,0-3.48-.02-5.21-.05-2.65-.04-5.3-.04-7.96-.03-1.69-.01-3.39-.02-5.08-.04-.79,0-1.58,0-2.39,0-4.57-.1-7.62-.6-11.23-3.47-2.81-4.22-2.81-8.04-2-13q2.44-3.06,5-5c2.84-2.84,12.96-1.32,16.98-1.35Z" style="fill: #eb8432;"/>
  <path d="M596,417.34c.8,0,1.61-.01,2.44-.02,1.7-.01,3.39-.01,5.09-.01,2.59,0,5.18-.04,7.77-.08,1.65,0,3.3,0,4.96-.01q1.16-.02,2.34-.04c3.75.03,5.89.36,9.07,2.41,3.56,3.67,3.36,6.68,3.33,11.61-.41,3.46-1.76,5.17-4.29,7.48-5.04,2.52-12.93,1.31-18.54,1.35-1.84.02-3.69.04-5.53.08-2.66.05-5.32.08-7.98.09-.82.02-1.64.05-2.49.07-4.33-.02-5.96-.2-9.48-2.97-2.74-3.64-2.57-5.85-2.34-10.25.47-3.1,1.29-5.01,3.36-7.38,3.77-2.62,7.9-2.32,12.31-2.34Z" style="fill: #ea8736;"/>
</svg>
